<svg xmlns="http://www.w3.org/2000/svg" viewBox="-690.1 526.7 90 90">
  <path fill="#256eff" d="M-647.5 574.1c3.4 3.4 7.9 5.2 12.7 5.2s9.3-1.9 12.7-5.2c1.3-1.3 1.3-3.3 0-4.5-1.3-1.3-3.3-1.3-4.5 0-2.2 2.2-5 3.4-8.1 3.4-3.1 0-5.9-1.2-8.1-3.4-7-7-18.3-7-25.3 0-2.2 2.2-5 3.4-8.1 3.4-3.1 0-5.9-1.2-8.1-3.4-1.3-1.3-3.3-1.3-4.5 0-1.3 1.3-1.3 3.3 0 4.5 3.4 3.4 7.9 5.2 12.7 5.2 4.8 0 9.3-1.9 12.7-5.2 4.1-4.5 11.4-4.5 15.9 0m33.4 11.9c-4.8 0-9.3 1.9-12.7 5.2-4.5 4.5-11.8 4.5-16.2 0-7-7-18.3-7-25.3 0-1.3 1.3-1.3 3.3 0 4.5 1.3 1.3 3.3 1.3 4.5 0 4.5-4.5 11.8-4.5 16.2 0 3.5 3.5 8.1 5.2 12.7 5.2s9.2-1.7 12.7-5.2c2.2-2.2 5-3.4 8.1-3.4 3.1 0 5.9 1.2 8.1 3.4 1.3 1.3 3.3 1.3 4.5 0 1.3-1.3 1.3-3.3 0-4.5-3.3-3.3-7.8-5.2-12.6-5.2m-49.6-33.7c4.5-4.5 11.8-4.5 16.2 0 3.4 3.4 7.9 5.2 12.7 5.2s9.3-1.9 12.7-5.2c2.2-2.2 5-3.4 8.1-3.4 3.1 0 5.9 1.2 8.1 3.4 1.3 1.3 3.3 1.3 4.5 0 1.3-1.3 1.3-3.3 0-4.5-3.4-3.4-7.9-5.2-12.7-5.2-4.8 0-9.3 1.9-12.7 5.2-2.2 2.2-5 3.4-8.1 3.4-3.1 0-5.9-1.2-8.1-3.4-7-7-18.3-7-25.3 0-1.3 1.3-1.3 3.3 0 4.5 1.3 1.3 3.3 1.3 4.6 0"/>
</svg>
