<?xml version="1.0" encoding="utf-8"?>
<!-- Generator: Adobe Illustrator 19.1.0, SVG Export Plug-In . SVG Version: 6.00 Build 0)  -->
<svg version="1.1" id="Layer_1" xmlns="http://www.w3.org/2000/svg" xmlns:xlink="http://www.w3.org/1999/xlink" x="0px" y="0px"
	 viewBox="-690.1 526.7 90 90" style="enable-background:new -690.1 526.7 90 90;" xml:space="preserve">
<style type="text/css">
	.st0{fill:#256EFF;}
</style>
<path class="st0" d="M-647.5,574.1c3.4,3.4,7.9,5.2,12.7,5.2s9.3-1.9,12.7-5.2c1.3-1.3,1.3-3.3,0-4.5c-1.3-1.3-3.3-1.3-4.5,0
	c-2.2,2.2-5,3.4-8.1,3.4c-3.1,0-5.9-1.2-8.1-3.4c-7-7-18.3-7-25.3,0c-2.2,2.2-5,3.4-8.1,3.4c-3.1,0-5.9-1.2-8.1-3.4
	c-1.3-1.3-3.3-1.3-4.5,0c-1.3,1.3-1.3,3.3,0,4.5c3.4,3.4,7.9,5.2,12.7,5.2c4.8,0,9.3-1.9,12.7-5.2
	C-659.3,569.6-652,569.6-647.5,574.1 M-614.1,586c-4.8,0-9.3,1.9-12.7,5.2c-4.5,4.5-11.8,4.5-16.2,0c-7-7-18.3-7-25.3,0
	c-1.3,1.3-1.3,3.3,0,4.5c1.3,1.3,3.3,1.3,4.5,0c4.5-4.5,11.8-4.5,16.2,0c3.5,3.5,8.1,5.2,12.7,5.2c4.6,0,9.2-1.7,12.7-5.2
	c2.2-2.2,5-3.4,8.1-3.4c3.1,0,5.9,1.2,8.1,3.4c1.3,1.3,3.3,1.3,4.5,0c1.3-1.3,1.3-3.3,0-4.5C-604.8,587.9-609.3,586-614.1,586
	 M-663.7,552.3c4.5-4.5,11.8-4.5,16.2,0c3.4,3.4,7.9,5.2,12.7,5.2s9.3-1.9,12.7-5.2c2.2-2.2,5-3.4,8.1-3.4c3.1,0,5.9,1.2,8.1,3.4
	c1.3,1.3,3.3,1.3,4.5,0c1.3-1.3,1.3-3.3,0-4.5c-3.4-3.4-7.9-5.2-12.7-5.2c-4.8,0-9.3,1.9-12.7,5.2c-2.2,2.2-5,3.4-8.1,3.4
	c-3.1,0-5.9-1.2-8.1-3.4c-7-7-18.3-7-25.3,0c-1.3,1.3-1.3,3.3,0,4.5C-667,553.6-665,553.6-663.7,552.3"/>
</svg>
