<svg width="0" height="0" style="position:absolute"><symbol viewBox="0 0 24 24" id="arrow" xmlns="http://www.w3.org/2000/svg"><path d="M13.025 1l-2.847 2.828 6.176 6.176H0v3.992h16.354l-6.176 6.176L13.025 23 24 12z"/></symbol><symbol viewBox="-341 263 90 67" id="boat" xmlns="http://www.w3.org/2000/svg"><path d="M-251 290l-4-2h-23l-3 1-3 1h-4l10-10 3 1 4-2 6-6c2-2 2-5 0-7l-2-2-4-1-3 1-6 6c-2 2-2 5 0 7l-12 12h-20l-3-1h-21c-2 0-3 0-4 2v4l3 6c1 3 5 5 8 5h21l-8 8-4-1-3 2-6 6-2 3 2 4 1 1 4 2 4-2 6-5c1-2 2-5 0-7l10-11h40c3 0 7-2 9-4l4-7v-4zm-27-18l6-5 1-1 2 1 1 1v3l-5 6h-3l-2-1v-4zm-39 49l-5 5-2 1-2-1-1-1v-3l6-6 1-1 2 1 1 1v4zm12-19h-24c-2 0-4-1-5-3l-3-6v-1l1-1h21l3 2h17l-10 9zm51-9l-4 6c-1 2-4 3-6 3h-37l10-9h6l4-1 3-1h24v2z"/></symbol><symbol viewBox="0 0 507 44" fill="#256eff" id="border" xmlns="http://www.w3.org/2000/svg"><path d="M507 38.2c-6.3-3.7-15.8-8.5-28-12.2-34.5-10.5-64.8-4.2-84 0-29 6.3-29.1 12-49 16-36.9 7.5-55.6-7.9-94-16-62.8-13.2-78.7 14.1-186 15-28.7.3-51.9-1.5-66-2.8V0h507v38.2z"/></symbol><symbol viewBox="-345 283 28 46" id="can" xmlns="http://www.w3.org/2000/svg"><path d="M-317 288c0-.1 0-.3-.1-.4v-.1c0-.1-.1-.1-.1-.2l-1.8-2.4v-2h-24v2l-1.8 2.4c0 .1-.1.1-.1.2v.1c0 .1-.1.2-.1.3v36c0 .1 0 .2.1.3v.1c0 .1.1.1.1.2l3 4c.2.3.5.4.8.4h20c.3 0 .6-.1.8-.4l3-4c0-.1.1-.1.1-.2v-.1c0-.1.1-.2.1-.3V288zm-26 1h24v34h-24v-34zm21.5-4l1.5 2h-22l1.5-2h19zm0 42h-19l-1.5-2h22l-1.5 2z"/><path d="M-326.288 293.705l-13.01 13.011-1.415-1.414 13.01-13.01zM-324.288 298.706l-13.01 13.01-1.415-1.414 13.01-13.01z"/></symbol><symbol fill-rule="evenodd" clip-rule="evenodd" viewBox="0 0 24 24" id="close" xmlns="http://www.w3.org/2000/svg"><path d="M12 11.293L22.293 1l.707.707L12.707 12 23 22.293l-.707.707L12 12.707 1.707 23 1 22.293 11.293 12 1 1.707 1.707 1 12 11.293z"/></symbol><symbol viewBox="-345 247 101 96" id="falls" xmlns="http://www.w3.org/2000/svg"><path d="M-312 290c1 1 3 1 4-1 1-1 1-3-1-4h-3c-1 1-2 3-1 4l1 1zm-17 11c1 1 3 1 4-1 1-1 1-3-1-4h-3c-1 1-2 3-1 4l1 1zm8 7c2 0 3-1 3-3s-1-3-3-3-3 1-3 3 1 3 3 3zm-8 4c1 1 3 1 4-1 1-1 1-3-1-4h-3c-1 1-2 3-1 4l1 1zm-13-12c1 1 3 1 4-1 1-1 1-3-1-4h-3c-1 1-2 3-1 4l1 1zm29 36c1 1 3 1 4-1 1-1 1-3-1-4h-3c-1 1-2 3-1 4l1 1zm0-32c1 1 3 1 4-1 1-1 1-3-1-4h-3c-1 1-2 3-1 4l1 1zm-6-6c1 1 3 1 4-1 1-1 1-3-1-4h-3c-1 1-2 3-1 4l1 1zm28 45s1-12 3-17l7-9s1-21 5-28c3-7 11-13 11-13l6-10c6-6 13-8 13-8v85h-45z"/><path d="M-322 343l-2-1c0-1-1-4-4-6l-6 1-4 4-2 2-2-3c0-1 2-6 6-8h9c6 2 8 8 8 8v3h-3zm24 0c-1 0-3-1-3-3 0 0-2-14-11-14-4 0-8 4-8 4l-3 1-2-2s-2-7-8-6-7 5-7 5l-3 2-2-3s2-8 11-9c7-1 11 3 13 6 2-1 5-3 9-3 6 0 10 3 13 8 1-13 6-34 15-51 5-8 10-14 15-18-7 4-15 10-21 19-7 11-12 24-13 37 1 1 0 2-1 3s-2 0-3-1c0 0-2-3-6-3l-5 1h-4v-3c1-1 3-3 9-3l6 1c1-7 3-21 13-35 17-26 45-28 46-28h3v3l-2 2s-20 5-32 27c-14 25-17 60-17 60 1 1 0 2-1 3h-1z"/><text font-family="HelveticaNeue-Bold" font-size="5" transform="translate(-345 359)">Created by Luis Prado</text><text font-family="HelveticaNeue-Bold" font-size="5" transform="translate(-345 364)">from the Noun Project</text></symbol><symbol viewBox="-342 266 92 56" id="fish" xmlns="http://www.w3.org/2000/svg"><path d="M-284 319l-5-1-6-1-6 1-5 1-5-1-6-1-6 1-5 1v3l6-1 5-1 5 1 6 1 6-1 5-1 5 1 6 1v-3zm33-44l-10-3-4-5-1-1c-6 2-15 8-13 17h-5l-1 2 1 1s5 3 5 9l1 1c1 0 4-1 5-5l5 1 2 4h3c2-1 2-3 3-5l2-1c7-4 8-13 8-14l-1-1zm-15-6l1 3-4 1c-4 2-6 6-7 9-1-7 7-11 10-13zm-11 23c0-3-2-5-3-6h3v2l1 1-1 3zm13 1h-1v-1h1v1zm5-5c-4 2-9 2-15-1 0-3 2-9 7-11 3-2 8-2 14 1 0 2-2 8-6 11z"/><path d="M-259 285l1 1 1-1-1-3c-3-2-2-5-2-5 0-1-1-2-2-1h-1s-1 5 4 9z"/><ellipse cx="-257" cy="278" rx="1" ry="1"/><path d="M-310 304l2 1v-2c3-7 7-13 13-18l-2-2h-1c-5 6-10 12-13 19l1 2zm20-25h1l4-3-2-2-4 2-1 2 2 1zm14 23c-11 1-22 5-31 13v2h2c9-7 19-11 30-12v-3h-1zm17 1l-9-1-2 1 2 2 8 1c1 0 2-1 1-2v-1zm-66 8l1 3c1 1 2-1 3-2l-1-2c-2-5-6-5-9-5l-1 2 2 1s4-1 5 3zm-14 2l-2 1c-1 1 0 2 1 3l2-1s2-1 3 1l3-1v-1c-3-3-7-2-7-2z"/><text font-family="HelveticaNeue-Bold" font-size="5" transform="translate(-345 359)">Created by Artem Kovyazin</text><text font-family="HelveticaNeue-Bold" font-size="5" transform="translate(-345 364)">from the Noun Project</text></symbol><symbol viewBox="0 0 24 24" id="flag" xmlns="http://www.w3.org/2000/svg"><path d="M4 24H2V0h2v24zM22 3l-4 1c-3 0-3-3-7-3L6 3v12l5-2c4 0 4 3 7 3l4-1V3z"/></symbol><symbol viewBox="0 0 24 24" id="plus" xmlns="http://www.w3.org/2000/svg"><path d="M12 2a10 10 0 1 1 0 20 10 10 0 0 1 0-20zm0-2a12 12 0 1 0 0 24 12 12 0 0 0 0-24zm6 13h-5v5h-2v-5H6v-2h5V6h2v5h5v2z"/></symbol><symbol viewBox="-6 43 794 759" id="texas" xmlns="http://www.w3.org/2000/svg"><path d="M158 375h53l1-332h183v143l6 2 7 6 6 7 5 1 3-4 4 2 4 2 2-1v-5l4 2 4 1 2 4 3 5v4l16 1 4 4 2 1 5 2h4l4-3 3 2 6 6 3-2 1-2 3-4 3 2 5 2 4 1 3-4 2 4v7h3l3 1v9l7 2 5-4 3-4 3-3 5 3v2l3 3 3-3 4 3v3l3 2 3-2h5l2-4 4 3-2 4-1 3 4 3 2-2v-8h5l3-6 3 1v6l6 1 3 7v-7h5l2-3 3 3 5 2 2 2 5 2 5 4 2-5h3l4-1v-3l16-4 5 1 6-1v-3h6l4-2 2 2 5 3h8l3-2 3-3 4-1 4 4 5 3 3 1 3 4 6 3 6 4 6 1 3 1v3l6-1 2 3 4 3 4 1 3-3h3l3 1h5l1 2v112l4 5 3 2v4c2 0 5 4 5 4v13l3 4 3 6-2 5h4l3 4-3 3-1 2h3v6h5l4-1v15h-2l2 4v8l-4 5-2 5-3 6-4 4 2 3 1 2-2 4-1 5 3 3 1 4-1 5v4l-2 6-4 3h-3l-1 5-3 2-1 6 5 3 3 8h-4l-10-4-30 13-9 7-5 1 2-4 4-3 9-4-4-2-11 3 2-4 2-6-1-7h-3l-4 2-3 4h-4l-6-5-3-4v4l4 4 4 4-3 7 3 4 3 3v4h4l5 3-13 12-3 3 1-4 9-10h-3l-7 6-5 4h-5l1 4 3 2-1 4-5 3-3 4-7 5-13 7h-6l-7 2h-5l-2 6h4l11-5-23 13-10 5-6 3 3-5 19-10-4-3-8 4h-3v-4l3-4-5 2-4 3-3-3s-4-4-3-2l1 7-4-1v2h-2l-4-2-1-4h-4l2 5-1 5 6 1-1 4 4 1 3 1-4 3-9 5-4-2-2-5-4-2 1 4h-4l3 6c1 2-1 7-1 7h12l8-5 4-5 3-2-2 6-19 11-5 4-5 5-4 5-1-5 3-4 3-3-5-1-3-1-3 5v9h-4l-1-4-1 7-2 4h-18l-1 2 3 2 5 5 3 3h2v3l-1 3-2 3-2 8-1 6h-4l-2 2-1-5 1-3-3-2v6l-4 3-6-5-3 2 3 4 3 2h-6l7 2 6 3 2-3 4-2h2l6-14 3-8 2-5 5-7 1-5 6-2s-17 25-20 43c0 0-2 7 0 23 1 9 4 20 9 34l-1 3-3-6-3-8-3-10-2-35-2 2-1 5-1 4-1 3 2 3h-4l-2 2 2 5-3 3 5 4v6l2 10v5l1 3 3 7h3l1 6 1 8 3 4 3 2v-20l4 20-2 3h-5l-5 4-2 4-2 2h-2l-3-2-10-7-6-4-8-2h-12l-12-3-11-7-8-1-5-1-5-5-4-4-6-1-7-2-4-2-2-6-2-7 1-5 1-3h-5l-3-6 2-5-5 1-4-5-3-6-3-14-3-4v-13l-2-6-5-4-5-2-8-8-2-6-6-9-4-6-6-5-8-6-2-9-1-6-5-10-8-14-5-10-2-6-3-6-10-10-9-7v-3l4-1 5 2-1-4-2-5-1-3-4 4-2 3-6-2-5-5-6-6-5-6-6-1-8 1-9-2h-11l-8 1-11-7-4 2-1 6h-5s-6-1-7 1l-7 2s-3 3-3 6-4 9-4 10l-2 10-2 2-1 5-1 5-3 1h-3l-3 3-3 5-2 3-7 1-5-3h-6l-9-10-8-1-5-5-7-1-10-6-7-5-2-4-5-2-5-3-11-9-5-12-3-12v-13l-9-10-4-13-4-6-9-9-16-9-10-9-5-6-7-4-5-8-11-7-6-5-7-6-8-13-5-3-7-5-5-4v-8h161"/></symbol><symbol viewBox="-338 264 87 60" id="tube" xmlns="http://www.w3.org/2000/svg"><path d="M-295 264c-24 0-43 14-43 30 0 17 19 30 43 30s43-14 43-30-19-30-43-30zm20 26l-1 3-2 2-4 2-4 2-4 1h-7l-3-1a30 30 0 0 1-8-2 16 16 0 0 1-6-5l-1-2v-2l1 2 1 1 2 2 3 2c1-4 6-6 13-6s13 2 13 6l3-2 2-2 1-1 1-2v2z"/></symbol><symbol viewBox="-340 265 89.5 58.5" id="water" xmlns="http://www.w3.org/2000/svg"><path d="M-297.5 296.6c3.4 3.4 7.9 5.2 12.7 5.2 4.8 0 9.3-1.9 12.7-5.2 1.3-1.3 1.3-3.3 0-4.5-1.3-1.3-3.3-1.3-4.5 0-2.2 2.2-5 3.4-8.1 3.4s-5.9-1.2-8.1-3.4c-7-7-18.3-7-25.3 0-2.2 2.2-5 3.4-8.1 3.4s-5.9-1.2-8.1-3.4c-1.3-1.3-3.3-1.3-4.5 0-1.3 1.3-1.3 3.3 0 4.5 3.4 3.4 7.9 5.2 12.7 5.2s9.3-1.9 12.7-5.2c4.1-4.5 11.4-4.5 15.9 0m33.4 11.9c-4.8 0-9.3 1.9-12.7 5.2-4.5 4.5-11.8 4.5-16.2 0-7-7-18.3-7-25.3 0-1.3 1.3-1.3 3.3 0 4.5 1.3 1.3 3.3 1.3 4.5 0 4.5-4.5 11.8-4.5 16.2 0 3.5 3.5 8.1 5.2 12.7 5.2s9.2-1.7 12.7-5.2c2.2-2.2 5-3.4 8.1-3.4 3.1 0 5.9 1.2 8.1 3.4 1.3 1.3 3.3 1.3 4.5 0 1.3-1.3 1.3-3.3 0-4.5-3.3-3.3-7.8-5.2-12.6-5.2m-49.6-33.7c4.5-4.5 11.8-4.5 16.2 0 3.4 3.4 7.9 5.2 12.7 5.2 4.8 0 9.3-1.9 12.7-5.2 2.2-2.2 5-3.4 8.1-3.4 3.1 0 5.9 1.2 8.1 3.4 1.3 1.3 3.3 1.3 4.5 0 1.3-1.3 1.3-3.3 0-4.5-3.4-3.4-7.9-5.2-12.7-5.2-4.8 0-9.3 1.9-12.7 5.2-2.2 2.2-5 3.4-8.1 3.4s-5.9-1.2-8.1-3.4c-7-7-18.3-7-25.3 0-1.3 1.3-1.3 3.3 0 4.5 1.3 1.3 3.3 1.3 4.6 0"/></symbol></svg>