<?xml version="1.0" encoding="utf-8"?>
<!-- Generator: Adobe Illustrator 19.1.0, SVG Export Plug-In . SVG Version: 6.00 Build 0)  -->
<svg version="1.1" xmlns="http://www.w3.org/2000/svg" xmlns:xlink="http://www.w3.org/1999/xlink" x="0px" y="0px"
	 viewBox="-195 107 400 400" style="enable-background:new -195 107 400 400;" xml:space="preserve">
<style type="text/css">
	.st0{display:none;}
	.st1{display:inline;fill:#256EFF;}
	.st2{opacity:0.2;}
	.st3{fill:#FFFFFF;}
</style>
<g id="Layer_2_1_" class="st0">
	<rect x="-194.7" y="107" class="st1" width="399.7" height="400"/>
</g>
<g id="Layer_1">
	<g id="Layer_2">
		<g id="Layer_3" class="st2">
			<path class="st3" d="M7,328l-5-1l-6-1l-6,1l-5,1l-5-1l-6-1l-6,1l-5,1v3l6-1l5-1l5,1l6,1l6-1l5-1l5,1l6,1V328z M40,284l-10-3l-4-5
				l-1-1c-6,2-15,8-13,17H7l-1,2l1,1c0,0,5,3,5,9l1,1c1,0,4-1,5-5l5,1l2,4h3c2-1,2-3,3-5l2-1c7-4,8-13,8-14L40,284z M25,278l1,3
				l-4,1c-4,2-6,6-7,9C14,284,22,280,25,278z M14,301c0-3-2-5-3-6h3v2l1,1L14,301z M27,302h-1v-1h1V302z M32,297c-4,2-9,2-15-1
				c0-3,2-9,7-11c3-2,8-2,14,1C38,288,36,294,32,297z"/>
			<path class="st3" d="M32,294l1,1l1-1l-1-3c-3-2-2-5-2-5c0-1-1-2-2-1h-1C28,285,27,290,32,294z"/>
			<ellipse class="st3" cx="34" cy="287" rx="1" ry="1"/>
			<path class="st3" d="M-19,313l2,1v-2c3-7,7-13,13-18l-2-2h-1c-5,6-10,12-13,19L-19,313z M1,288h1l4-3l-2-2l-4,2l-1,2L1,288z
				 M15,311c-11,1-22,5-31,13v2h2c9-7,19-11,30-12v-3H15z M32,312l-9-1l-2,1l2,2l8,1c1,0,2-1,1-2V312z M-34,320l1,3c1,1,2-1,3-2
				l-1-2c-2-5-6-5-9-5l-1,2l2,1C-39,317-35,316-34,320z M-48,322l-2,1c-1,1,0,2,1,3l2-1c0,0,2-1,3,1l3-1v-1C-44,321-48,322-48,322z"
				/>
		</g>
		<g id="Layer_4" class="st2">
			<path class="st3" d="M119.9,409.9c0.7,0.7,2,0.7,2.6-0.7c0.7-0.7,0.7-2-0.7-2.6h-2c-0.7,0.7-1.3,2-0.7,2.6L119.9,409.9z
				 M108.7,417.1c0.7,0.7,2,0.7,2.6-0.7c0.7-0.7,0.7-2-0.7-2.6h-2c-0.7,0.7-1.3,2-0.7,2.6L108.7,417.1z M114,421.8c1.3,0,2-0.7,2-2
				s-0.7-2-2-2s-2,0.7-2,2S112.7,421.8,114,421.8z M108.7,424.4c0.7,0.7,2,0.7,2.6-0.7c0.7-0.7,0.7-2-0.7-2.6h-2
				c-0.7,0.7-1.3,2-0.7,2.6L108.7,424.4z M100.1,416.5c0.7,0.7,2,0.7,2.6-0.7c0.7-0.7,0.7-2-0.7-2.6h-2c-0.7,0.7-1.3,2-0.7,2.6
				L100.1,416.5z M119.3,440.2c0.7,0.7,2,0.7,2.6-0.7c0.7-0.7,0.7-2-0.7-2.6h-2c-0.7,0.7-1.3,2-0.7,2.6L119.3,440.2z M119.3,419.1
				c0.7,0.7,2,0.7,2.6-0.7c0.7-0.7,0.7-2-0.7-2.6h-2c-0.7,0.7-1.3,2-0.7,2.6L119.3,419.1z M115.3,415.2c0.7,0.7,2,0.7,2.6-0.7
				c0.7-0.7,0.7-2-0.7-2.6h-2c-0.7,0.7-1.3,2-0.7,2.6L115.3,415.2z M133.8,444.8c0,0,0.7-7.9,2-11.2l4.6-5.9c0,0,0.7-13.9,3.3-18.5
				c2-4.6,7.3-8.6,7.3-8.6l4-6.6c4-4,8.6-5.3,8.6-5.3v56.1H133.8z"/>
			<path class="st3" d="M113.3,444.8l-1.3-0.7c0-0.7-0.7-2.6-2.6-4l-4,0.7l-2.6,2.6l-1.3,1.3l-1.3-2c0-0.7,1.3-4,4-5.3h5.9
				c4,1.3,5.3,5.3,5.3,5.3v2h-2.1V444.8z M129.1,444.8c-0.7,0-2-0.7-2-2c0,0-1.3-9.2-7.3-9.2c-2.6,0-5.3,2.6-5.3,2.6l-2,0.7
				l-1.3-1.3c0,0-1.3-4.6-5.3-4c-4,0.7-4.6,3.3-4.6,3.3l-2,1.3l-1.3-2c0,0,1.3-5.3,7.3-5.9c4.6-0.7,7.3,2,8.6,4c1.3-0.7,3.3-2,5.9-2
				c4,0,6.6,2,8.6,5.3c0.7-8.6,4-22.4,9.9-33.6c3.3-5.3,6.6-9.2,9.9-11.9c-4.6,2.6-9.9,6.6-13.9,12.5c-4.6,7.3-7.9,15.8-8.6,24.4
				c0.7,0.7,0,1.3-0.7,2s-1.3,0-2-0.7c0,0-1.3-2-4-2l-3,0.7h-2.6v-2c0.7-0.7,2-2,5.9-2l4,0.7c0.7-4.6,2-13.9,8.6-23.1
				c11.2-17.2,29.7-18.5,30.3-18.5h2v2l-1.3,1.3c0,0-13.2,3.3-21.1,17.8c-9.2,16.5-11.2,39.6-11.2,39.6c0.7,0.7,0,1.3-0.7,2H129.1z"
				/>
		</g>
		<g id="Layer_5" class="st2">
			<path class="st3" d="M-70.1,196.9l-0.3,0.1h-0.4v-0.5h-0.3l0.1-0.2l0.3-0.3l-0.3-0.3h-0.3l0.2-0.4l-0.3-0.5l-0.3-0.3v-1.1
				c0,0-0.3-0.3-0.4-0.3v-0.3l-0.3-0.2l-0.3-0.4v-9.4l-0.1-0.2h-0.4l-0.3-0.1h-0.3l-0.3,0.3l-0.3-0.1l-0.3-0.3l-0.2-0.3l-0.5,0.1
				v-0.3l-0.3-0.1l-0.5-0.1l-0.5-0.3l-0.5-0.3l-0.3-0.3l-0.3-0.1l-0.4-0.3l-0.3-0.3l-0.3,0.1l-0.3,0.3l-0.3,0.2h-0.7l-0.4-0.3
				l-0.2-0.2l-0.3,0.2h-0.5v0.3l-0.5,0.1l-0.4-0.1l-1.3,0.3v0.3l-0.3,0.1h-0.3l-0.2,0.4l-0.4-0.3l-0.4-0.2l-0.2-0.2l-0.4-0.2
				l-0.3-0.3l-0.2,0.3h-0.4v0.6l-0.3-0.6l-0.5-0.1v-0.5l-0.3-0.1l-0.3,0.5h-0.4v0.7l-0.2,0.2l-0.3-0.3l0.1-0.3l0.2-0.3l-0.3-0.3
				l-0.2,0.3h-0.4l-0.3,0.2l-0.3-0.2v-0.3l-0.3-0.3l-0.3,0.3l-0.3-0.3v-0.2l-0.4-0.3l-0.3,0.3l-0.3,0.3l-0.4,0.3l-0.6-0.2v-0.8
				l-0.3-0.1h-0.3v-0.6l-0.2-0.3l-0.3,0.3l-0.3-0.1l-0.4-0.2l-0.3-0.2l-0.3,0.3l-0.1,0.2L-96,179l0.3,0l-0.3-0.2l-0.3,0.2h-0.3
				l-0.4-0.2l-0.2-0.1l-0.3-0.3l-1.3-0.1V178l-0.3-0.4l-0.2-0.3l-0.3-0.1l-0.4-0.2v0.4l-0.2,0.1l-0.3-0.2l-0.3-0.2l-0.3,0.3
				l-0.4-0.1l-0.5-0.4l-0.6-0.5l-0.5-0.2v-12h-15.4l-0.1,27.9h-4.4h-0.3h-13.5v0.7l0.4,0.3l0.6,0.4l0.4,0.3l0.7,1.1l0.6,0.5l0.5,0.4
				l0.9,0.6l0.4,0.7l0.6,0.3l0.4,0.5l0.8,0.8l1.3,0.8l0.8,0.8l0.3,0.5l0.3,1.1l0.8,0.8v1.1l0.3,1l0.4,1l0.9,0.8l0.4,0.3l0.4,0.2
				l0.2,0.3l0.6,0.4l0.8,0.5l0.6,0.1l0.4,0.4l0.7,0.1l0.8,0.8h0.5l0.4,0.3l0.6-0.1l0.2-0.3l0.3-0.4l0.3-0.3h0.2l0.3-0.1l0.1-0.4
				l0.1-0.4l0.2-0.2l0.2-0.8c0-0.1,0.3-0.6,0.3-0.8c0-0.3,0.3-0.5,0.3-0.5l0.6-0.2c0.1-0.2,0.6-0.1,0.6-0.1h0.3l0.1-0.5l0.3-0.2
				l0.9,0.6l0.7-0.1h0.9l0.8,0.2l0.7-0.1l0.5,0.1l0.4,0.5l0.5,0.5l0.4,0.4l0.5,0.2l0.2-0.3l0.3-0.3l0.1,0.3l0.2,0.4l0.1,0.3
				l-0.4-0.2l-0.3,0.1v0.3l0.8,0.6l0.8,0.8l0.3,0.5l0.2,0.5l0.4,0.8l0.7,1.2l0.4,0.8l0.1,0.5l0.2,0.8l0.7,0.5l0.5,0.4l0.3,0.5
				l0.5,0.8l0.2,0.5l0.7,0.7l0.4,0.2l0.4,0.3l0.2,0.5v1.1l0.3,0.3l0.3,1.2l0.3,0.5l0.3,0.4l0.4-0.1l-0.2,0.4l0.3,0.5h0.4l-0.1,0.3
				l-0.1,0.4l0.2,0.6l0.2,0.5l0.3,0.2l0.6,0.2l0.5,0.1l0.3,0.3l0.4,0.4l0.4,0.1l0.7,0.1l0.9,0.6l1,0.3h1l0.7,0.2l0.5,0.3l0.8,0.6
				l0.3,0.2h0.2l0.2-0.2l0.2-0.3l0.4-0.3h0.4l0.2-0.3l-0.3-1.7v1.7l-0.3-0.2l-0.3-0.3l-0.1-0.7l-0.1-0.5h-0.3l-0.3-0.6l-0.1-0.3
				v-0.4l-0.2-0.8v-0.5l-0.4-0.3l0.3-0.3l-0.2-0.4l0.2-0.2h0.3l-0.2-0.3l0.1-0.3l0.1-0.3l0.1-0.4l0.2-0.2l0.2,2.9l0.3,0.8l0.3,0.7
				l0.3,0.5l0.1-0.3c-0.4-1.2-0.7-2.1-0.8-2.9c-0.2-1.3,0-1.9,0-1.9c0.3-1.5,1.7-3.6,1.7-3.6l-0.5,0.2l-0.1,0.4l-0.4,0.6l-0.2,0.4
				l-0.3,0.7l-0.5,1.2h-0.2l-0.3,0.2l-0.2,0.3l-0.5-0.3l-0.6-0.2h0.5l-0.3-0.2l-0.3-0.3l0.3-0.2l0.5,0.4l0.3-0.3v-0.5l0.3,0.2
				l-0.1,0.3l0.1,0.4l0.2-0.2h0.3l0.1-0.5l0.2-0.7l0.2-0.3l0.1-0.3v-0.3H-89l-0.3-0.3l-0.4-0.4l-0.3-0.2l0.1-0.2h1.5l0.2-0.3
				l0.1-0.6l0.1,0.3h0.3v-0.8l0.3-0.4l0.3,0.1l0.4,0.1l-0.3,0.3l-0.3,0.3l0.1,0.4l0.3-0.4l0.4-0.4l0.4-0.3l1.6-0.9l0.2-0.5l-0.3,0.2
				l-0.3,0.4l-0.7,0.4h-1c0,0,0.2-0.4,0.1-0.6l-0.3-0.5h0.3l-0.1-0.3l0.3,0.2l0.2,0.4l0.3,0.2l0.8-0.4l0.3-0.3l-0.3-0.1l-0.3-0.1
				l0.1-0.3l-0.5-0.1l0.1-0.4l-0.2-0.4h0.3l0.1,0.3l0.3,0.2h0.2v-0.2l0.3,0.1l-0.1-0.6c-0.1-0.2,0.3,0.2,0.3,0.2l0.3,0.3l0.3-0.3
				l0.4-0.2l-0.3,0.3v0.3h0.3l0.7-0.3l0.3,0.3l-1.6,0.8l-0.3,0.4l0.5-0.3l0.8-0.4l1.9-1.1l-0.9,0.4h-0.3l0.2-0.5h0.4l0.6-0.2h0.5
				l1.1-0.6l0.6-0.4l0.3-0.3l0.4-0.3l0.1-0.3l-0.3-0.2l-0.1-0.3h0.4l0.4-0.3l0.6-0.5h0.3l-0.8,0.8l-0.1,0.3l0.3-0.3l1.1-1l-0.4-0.3
				H-77v-0.3l-0.3-0.3l-0.3-0.3l0.3-0.6l-0.3-0.3l-0.3-0.3V205l0.3,0.3l0.5,0.4h0.3l0.3-0.3l0.3-0.2h0.3l0.1,0.6l-0.2,0.5l-0.2,0.3
				l0.9-0.3l0.3,0.2l-0.8,0.3l-0.3,0.3l-0.2,0.3l0.4-0.1l0.8-0.6l2.5-1.1l0.8,0.3h0.3l-0.3-0.7l-0.4-0.3l0.1-0.5l0.3-0.2l0.1-0.4
				h0.3l0.3-0.3l0.2-0.5v0l0.1-0.4l-0.1-0.3l-0.3-0.3l0.1-0.4l0.2-0.3l-0.1-0.2l-0.2-0.3l0.3-0.3l0.3-0.5l0.2-0.4l0.3-0.4v-0.7
				l-0.2-0.3h0.2L-70.1,196.9L-70.1,196.9z"/>
		</g>
		<g id="Layer_6" class="st2">
			<path class="st3" d="M-58.9,412.5l-4-2h-23l-3,1l-3,1h-4l10-10l3,1l4-2l6-6c2-2,2-5,0-7l-2-2l-4-1l-3,1l-6,6c-2,2-2,5,0,7l-12,12
				h-20l-3-1h-21c-2,0-3,0-4,2v4l3,6c1,3,5,5,8,5h21l-8,8l-4-1l-3,2l-6,6l-2,3l2,4l1,1l4,2l4-2l6-5c1-2,2-5,0-7l10-11h40
				c3,0,7-2,9-4l4-7V412.5z M-85.9,394.5l6-5l1-1l2,1l1,1v3l-5,6h-3l-2-1V394.5z M-124.9,443.5l-5,5l-2,1l-2-1l-1-1v-3l6-6l1-1l2,1
				l1,1V443.5z M-112.9,424.5h-24c-2,0-4-1-5-3l-3-6v-1l1-1h21l3,2h17L-112.9,424.5z M-61.9,415.5l-4,6c-1,2-4,3-6,3h-37l10-9h6l4-1
				l3-1h24V415.5z"/>
		</g>
		<g id="Layer_7" class="st2">
			<path class="st3" d="M89.4,192c2.3,2.3,5.4,3.6,8.7,3.6s6.4-1.3,8.7-3.6c0.9-0.9,0.9-2.3,0-3.1c-0.9-0.9-2.3-0.9-3.1,0
				c-1.5,1.5-3.4,2.3-5.6,2.3s-4.1-0.8-5.6-2.3c-4.8-4.8-12.6-4.8-17.4,0c-1.5,1.5-3.4,2.3-5.6,2.3c-2.1,0-4.1-0.8-5.6-2.3
				c-0.9-0.9-2.3-0.9-3.1,0c-0.9,0.9-0.9,2.3,0,3.1c2.3,2.3,5.4,3.6,8.7,3.6s6.4-1.3,8.7-3.6C81.3,188.9,86.3,188.9,89.4,192
				 M112.4,200.2c-3.3,0-6.4,1.3-8.7,3.6c-3.1,3.1-8.1,3.1-11.1,0c-4.8-4.8-12.6-4.8-17.4,0c-0.9,0.9-0.9,2.3,0,3.1
				c0.9,0.9,2.3,0.9,3.1,0c3.1-3.1,8.1-3.1,11.1,0c2.4,2.4,5.6,3.6,8.7,3.6s6.3-1.2,8.7-3.6c1.5-1.5,3.4-2.3,5.6-2.3
				s4.1,0.8,5.6,2.3c0.9,0.9,2.3,0.9,3.1,0c0.9-0.9,0.9-2.3,0-3.1C118.8,201.5,115.7,200.2,112.4,200.2 M78.3,177
				c3.1-3.1,8.1-3.1,11.1,0c2.3,2.3,5.4,3.6,8.7,3.6c3.3,0,6.4-1.3,8.7-3.6c1.5-1.5,3.4-2.3,5.6-2.3c2.1,0,4.1,0.8,5.6,2.3
				c0.9,0.9,2.3,0.9,3.1,0c0.9-0.9,0.9-2.3,0-3.1c-2.3-2.3-5.4-3.6-8.7-3.6s-6.4,1.3-8.7,3.6c-1.5,1.5-3.4,2.3-5.6,2.3
				s-4.1-0.8-5.6-2.3c-4.8-4.8-12.6-4.8-17.4,0c-0.9,0.9-0.9,2.3,0,3.1C76,177.9,77.4,177.9,78.3,177"/>
		</g>
	</g>
</g>
</svg>
