<?xml version="1.0" encoding="utf-8"?>
<!-- Generator: Adobe Illustrator 19.1.0, SVG Export Plug-In . SVG Version: 6.00 Build 0)  -->
<svg version="1.1" xmlns="http://www.w3.org/2000/svg" xmlns:xlink="http://www.w3.org/1999/xlink" x="0px" y="0px"
	 viewBox="-194.7 107 715.8 304.1" style="enable-background:new -194.7 107 715.8 304.1;" xml:space="preserve">
<style type="text/css">
	.st0{display:none;}
	.st1{display:inline;fill:#256EFF;}
	.st2{opacity:0.2;}
	.st3{fill:#FFFFFF;}
</style>
<g id="Layer_2_1_" class="st0">
	<rect x="-194.7" y="107" class="st1" width="715.8" height="304.1"/>
</g>
<g id="Layer_1">
	<g id="Layer_3" class="st2">
		<path class="st3" d="M101.3,314.8l-5-1l-6-1l-6,1l-5,1l-5-1l-6-1l-6,1l-5,1v3l6-1l5-1l5,1l6,1l6-1l5-1l5,1l6,1V314.8z
			 M134.3,270.8l-10-3l-4-5l-1-1c-6,2-15,8-13,17h-5l-1,2l1,1c0,0,5,3,5,9l1,1c1,0,4-1,5-5l5,1l2,4h3c2-1,2-3,3-5l2-1c7-4,8-13,8-14
			L134.3,270.8z M119.3,264.8l1,3l-4,1c-4,2-6,6-7,9C108.3,270.8,116.3,266.8,119.3,264.8z M108.3,287.8c0-3-2-5-3-6h3v2l1,1
			L108.3,287.8z M121.3,288.8h-1v-1h1V288.8z M126.3,283.8c-4,2-9,2-15-1c0-3,2-9,7-11c3-2,8-2,14,1
			C132.3,274.8,130.3,280.8,126.3,283.8z"/>
		<path class="st3" d="M126.3,280.8l1,1l1-1l-1-3c-3-2-2-5-2-5c0-1-1-2-2-1h-1C122.3,271.8,121.3,276.8,126.3,280.8z"/>
		<ellipse class="st3" cx="128.3" cy="273.8" rx="1" ry="1"/>
		<path class="st3" d="M75.3,299.8l2,1v-2c3-7,7-13,13-18l-2-2h-1c-5,6-10,12-13,19L75.3,299.8z M95.3,274.8h1l4-3l-2-2l-4,2l-1,2
			L95.3,274.8z M109.3,297.8c-11,1-22,5-31,13v2h2c9-7,19-11,30-12v-3H109.3z M126.3,298.8l-9-1l-2,1l2,2l8,1c1,0,2-1,1-2V298.8z
			 M60.3,306.8l1,3c1,1,2-1,3-2l-1-2c-2-5-6-5-9-5l-1,2l2,1C55.3,303.8,59.3,302.8,60.3,306.8z M46.3,308.8l-2,1c-1,1,0,2,1,3l2-1
			c0,0,2-1,3,1l3-1v-1C50.3,307.8,46.3,308.8,46.3,308.8z"/>
	</g>
	<g id="Layer_5" class="st2">
		<path class="st3" d="M-124,152.1l-0.3,0.1h-0.4v-0.5h-0.3l0.1-0.2l0.3-0.3l-0.3-0.3h-0.3l0.2-0.4l-0.3-0.5l-0.3-0.3v-1.1
			c0,0-0.3-0.3-0.4-0.3V148l-0.3-0.2l-0.3-0.4V138l-0.1-0.2h-0.4l-0.3-0.1h-0.3l-0.3,0.3l-0.3-0.1l-0.3-0.3l-0.2-0.3l-0.5,0.1v-0.3
			l-0.3-0.1l-0.5-0.1l-0.5-0.3l-0.5-0.3l-0.3-0.3l-0.3-0.1l-0.4-0.3l-0.3-0.3l-0.3,0.1l-0.3,0.3l-0.3,0.2h-0.7l-0.4-0.3l-0.2-0.2
			l-0.3,0.2h-0.5v0.3l-0.5,0.1l-0.4-0.1l-1.3,0.3v0.3l-0.3,0.1h-0.3l-0.2,0.4l-0.4-0.3l-0.4-0.2l-0.2-0.2l-0.4-0.2l-0.3-0.3
			l-0.2,0.3h-0.4v0.6l-0.3-0.6l-0.5-0.1v-0.5l-0.3-0.1l-0.3,0.5h-0.4v0.7l-0.2,0.2l-0.3-0.3l0.1-0.3l0.2-0.3l-0.3-0.3l-0.2,0.3h-0.4
			l-0.3,0.2l-0.3-0.2v-0.3l-0.3-0.3l-0.3,0.3l-0.3-0.3v-0.2l-0.4-0.3l-0.3,0.3l-0.3,0.3l-0.4,0.3l-0.6-0.2v-0.8l-0.3-0.1h-0.3V134
			l-0.2-0.3l-0.3,0.3l-0.3-0.1l-0.4-0.2l-0.3-0.2l-0.3,0.3l-0.1,0.2l-0.3,0.2l0.3,0l-0.3-0.2l-0.3,0.2h-0.3l-0.4-0.2l-0.2-0.1
			l-0.3-0.3l-1.3-0.1v-0.3l-0.3-0.4l-0.2-0.3l-0.3-0.1l-0.4-0.2v0.4l-0.2,0.1l-0.3-0.2l-0.3-0.2l-0.3,0.3l-0.4-0.1l-0.5-0.4
			l-0.6-0.5l-0.5-0.2v-12h-15.4l-0.1,27.9h-4.4h-0.3h-13.5v0.7l0.4,0.3l0.6,0.4l0.4,0.3l0.7,1.1l0.6,0.5l0.5,0.4l0.9,0.6l0.4,0.7
			l0.6,0.3l0.4,0.5l0.8,0.8l1.3,0.8l0.8,0.8l0.3,0.5l0.3,1.1l0.8,0.8v1.1l0.3,1l0.4,1l0.9,0.8l0.4,0.3l0.4,0.2l0.2,0.3l0.6,0.4
			l0.8,0.5l0.6,0.1l0.4,0.4l0.7,0.1l0.8,0.8h0.5l0.4,0.3l0.6-0.1l0.2-0.3l0.3-0.4l0.3-0.3h0.2l0.3-0.1l0.1-0.4l0.1-0.4l0.2-0.2
			l0.2-0.8c0-0.1,0.3-0.6,0.3-0.8c0-0.3,0.3-0.5,0.3-0.5l0.6-0.2c0.1-0.2,0.6-0.1,0.6-0.1h0.3l0.1-0.5l0.3-0.2l0.9,0.6l0.7-0.1h0.9
			l0.8,0.2l0.7-0.1l0.5,0.1l0.4,0.5l0.5,0.5l0.4,0.4l0.5,0.2l0.2-0.3l0.3-0.3l0.1,0.3l0.2,0.4l0.1,0.3l-0.4-0.2l-0.3,0.1v0.3
			l0.8,0.6l0.8,0.8l0.3,0.5l0.2,0.5l0.4,0.8l0.7,1.2l0.4,0.8l0.1,0.5l0.2,0.8l0.7,0.5l0.5,0.4l0.3,0.5l0.5,0.8l0.2,0.5l0.7,0.7
			l0.4,0.2l0.4,0.3l0.2,0.5v1.1l0.3,0.3l0.3,1.2l0.3,0.5l0.3,0.4l0.4-0.1l-0.2,0.4l0.3,0.5h0.4l-0.1,0.3l-0.1,0.4l0.2,0.6l0.2,0.5
			l0.3,0.2l0.6,0.2l0.5,0.1l0.3,0.3l0.4,0.4l0.4,0.1l0.7,0.1l0.9,0.6l1,0.3h1l0.7,0.2l0.5,0.3l0.8,0.6l0.3,0.2h0.2l0.2-0.2l0.2-0.3
			l0.4-0.3h0.4l0.2-0.3l-0.3-1.7v1.7l-0.3-0.2l-0.3-0.3l-0.1-0.7l-0.1-0.5h-0.3l-0.3-0.6l-0.1-0.3v-0.4l-0.2-0.8V178l-0.4-0.3
			l0.3-0.3l-0.2-0.4l0.2-0.2h0.3l-0.2-0.3l0.1-0.3l0.1-0.3l0.1-0.4l0.2-0.2l0.2,2.9l0.3,0.8l0.3,0.7l0.3,0.5l0.1-0.3
			c-0.4-1.2-0.7-2.1-0.8-2.9c-0.2-1.3,0-1.9,0-1.9c0.3-1.5,1.7-3.6,1.7-3.6l-0.5,0.2l-0.1,0.4l-0.4,0.6l-0.2,0.4l-0.3,0.7l-0.5,1.2
			h-0.2l-0.3,0.2l-0.2,0.3l-0.5-0.3l-0.6-0.2h0.5l-0.3-0.2l-0.3-0.3l0.3-0.2l0.5,0.4l0.3-0.3v-0.5l0.3,0.2l-0.1,0.3l0.1,0.4l0.2-0.2
			h0.3l0.1-0.5l0.2-0.7l0.2-0.3l0.1-0.3v-0.3h-0.2l-0.3-0.3l-0.4-0.4l-0.3-0.2l0.1-0.2h1.5l0.2-0.3l0.1-0.6l0.1,0.3h0.3V170l0.3-0.4
			l0.3,0.1l0.4,0.1l-0.3,0.3l-0.3,0.3l0.1,0.4l0.3-0.4l0.4-0.4l0.4-0.3l1.6-0.9l0.2-0.5l-0.3,0.2l-0.3,0.4l-0.7,0.4h-1
			c0,0,0.2-0.4,0.1-0.6l-0.3-0.5h0.3l-0.1-0.3l0.3,0.2l0.2,0.4l0.3,0.2l0.8-0.4l0.3-0.3l-0.3-0.1l-0.3-0.1l0.1-0.3l-0.5-0.1l0.1-0.4
			l-0.2-0.4h0.3l0.1,0.3l0.3,0.2h0.2v-0.2l0.3,0.1l-0.1-0.6c-0.1-0.2,0.3,0.2,0.3,0.2l0.3,0.3l0.3-0.3l0.4-0.2l-0.3,0.3v0.3h0.3
			l0.7-0.3l0.3,0.3l-1.6,0.8l-0.3,0.4l0.5-0.3l0.8-0.4l1.9-1.1l-0.9,0.4h-0.3l0.2-0.5h0.4l0.6-0.2h0.5l1.1-0.6l0.6-0.4l0.3-0.3
			l0.4-0.3l0.1-0.3l-0.3-0.2l-0.1-0.3h0.4l0.4-0.3l0.6-0.5h0.3l-0.8,0.8l-0.1,0.3l0.3-0.3l1.1-1l-0.4-0.3h-0.3v-0.3l-0.3-0.3
			l-0.3-0.3l0.3-0.6l-0.3-0.3l-0.3-0.3v-0.1l0.3,0.3l0.5,0.4h0.3l0.3-0.3l0.3-0.2h0.3l0.1,0.6l-0.2,0.5l-0.2,0.3l0.9-0.3l0.3,0.2
			l-0.8,0.3l-0.3,0.3l-0.2,0.3l0.4-0.1l0.8-0.6l2.5-1.1l0.8,0.3h0.3l-0.3-0.7l-0.4-0.3l0.1-0.5l0.3-0.2l0.1-0.4h0.3l0.3-0.3l0.2-0.5
			v0l0.1-0.4l-0.1-0.3l-0.3-0.3l0.1-0.4l0.2-0.3l-0.1-0.2l-0.2-0.3l0.3-0.3l0.3-0.5l0.2-0.4l0.3-0.4v-0.7l-0.2-0.3h0.2L-124,152.1
			L-124,152.1z"/>
	</g>
	<g id="Layer_6" class="st2">
		<path class="st3" d="M-47,284.5l-4-2h-23l-3,1l-3,1h-4l10-10l3,1l4-2l6-6c2-2,2-5,0-7l-2-2l-4-1l-3,1l-6,6c-2,2-2,5,0,7l-12,12
			h-20l-3-1h-21c-2,0-3,0-4,2v4l3,6c1,3,5,5,8,5h21l-8,8l-4-1l-3,2l-6,6l-2,3l2,4l1,1l4,2l4-2l6-5c1-2,2-5,0-7l10-11h40c3,0,7-2,9-4
			l4-7V284.5z M-74,266.5l6-5l1-1l2,1l1,1v3l-5,6h-3l-2-1V266.5z M-113,315.5l-5,5l-2,1l-2-1l-1-1v-3l6-6l1-1l2,1l1,1V315.5z
			 M-101,296.5h-24c-2,0-4-1-5-3l-3-6v-1l1-1h21l3,2h17L-101,296.5z M-50,287.5l-4,6c-1,2-4,3-6,3h-37l10-9h6l4-1l3-1h24V287.5z"/>
	</g>
	<g id="Layer_7" class="st2">
		<path class="st3" d="M5.9,155.6c2.3,2.3,5.4,3.6,8.7,3.6s6.4-1.3,8.7-3.6c0.9-0.9,0.9-2.3,0-3.1c-0.9-0.9-2.3-0.9-3.1,0
			c-1.5,1.5-3.4,2.3-5.6,2.3s-4.1-0.8-5.6-2.3c-4.8-4.8-12.6-4.8-17.4,0c-1.5,1.5-3.4,2.3-5.6,2.3c-2.1,0-4.1-0.8-5.6-2.3
			c-0.9-0.9-2.3-0.9-3.1,0c-0.9,0.9-0.9,2.3,0,3.1c2.3,2.3,5.4,3.6,8.7,3.6s6.4-1.3,8.7-3.6C-2.2,152.5,2.8,152.5,5.9,155.6
			 M28.9,163.8c-3.3,0-6.4,1.3-8.7,3.6c-3.1,3.1-8.1,3.1-11.1,0c-4.8-4.8-12.6-4.8-17.4,0c-0.9,0.9-0.9,2.3,0,3.1
			c0.9,0.9,2.3,0.9,3.1,0c3.1-3.1,8.1-3.1,11.1,0c2.4,2.4,5.6,3.6,8.7,3.6s6.3-1.2,8.7-3.6c1.5-1.5,3.4-2.3,5.6-2.3s4.1,0.8,5.6,2.3
			c0.9,0.9,2.3,0.9,3.1,0c0.9-0.9,0.9-2.3,0-3.1C35.3,165.1,32.2,163.8,28.9,163.8 M-5.2,140.6c3.1-3.1,8.1-3.1,11.1,0
			c2.3,2.3,5.4,3.6,8.7,3.6c3.3,0,6.4-1.3,8.7-3.6c1.5-1.5,3.4-2.3,5.6-2.3c2.1,0,4.1,0.8,5.6,2.3c0.9,0.9,2.3,0.9,3.1,0
			c0.9-0.9,0.9-2.3,0-3.1c-2.3-2.3-5.4-3.6-8.7-3.6s-6.4,1.3-8.7,3.6c-1.5,1.5-3.4,2.3-5.6,2.3s-4.1-0.8-5.6-2.3
			c-4.8-4.8-12.6-4.8-17.4,0c-0.9,0.9-0.9,2.3,0,3.1C-7.5,141.5-6.1,141.5-5.2,140.6"/>
	</g>
	<g id="Layer_6_1_" class="st2">
		<path class="st3" d="M216.6,142.4l-4-2h-23l-3,1l-3,1h-4l10-10l3,1l4-2l6-6c2-2,2-5,0-7l-2-2l-4-1l-3,1l-6,6c-2,2-2,5,0,7l-12,12
			h-20l-3-1h-21c-2,0-3,0-4,2v4l3,6c1,3,5,5,8,5h21l-8,8l-4-1l-3,2l-6,6l-2,3l2,4l1,1l4,2l4-2l6-5c1-2,2-5,0-7l10-11h40c3,0,7-2,9-4
			l4-7V142.4z M189.6,124.4l6-5l1-1l2,1l1,1v3l-5,6h-3l-2-1V124.4z M150.6,173.4l-5,5l-2,1l-2-1l-1-1v-3l6-6l1-1l2,1l1,1V173.4z
			 M162.6,154.4h-24c-2,0-4-1-5-3l-3-6v-1l1-1h21l3,2h17L162.6,154.4z M213.6,145.4l-4,6c-1,2-4,3-6,3h-37l10-9h6l4-1l3-1h24V145.4z
			"/>
	</g>
	<g id="Layer_3_1_" class="st2">
		<path class="st3" d="M407,164l-5-1l-6-1l-6,1l-5,1l-5-1l-6-1l-6,1l-5,1v3l6-1l5-1l5,1l6,1l6-1l5-1l5,1l6,1V164z M440,120l-10-3
			l-4-5l-1-1c-6,2-15,8-13,17h-5l-1,2l1,1c0,0,5,3,5,9l1,1c1,0,4-1,5-5l5,1l2,4h3c2-1,2-3,3-5l2-1c7-4,8-13,8-14L440,120z M425,114
			l1,3l-4,1c-4,2-6,6-7,9C414,120,422,116,425,114z M414,137c0-3-2-5-3-6h3v2l1,1L414,137z M427,138h-1v-1h1V138z M432,133
			c-4,2-9,2-15-1c0-3,2-9,7-11c3-2,8-2,14,1C438,124,436,130,432,133z"/>
		<path class="st3" d="M432,130l1,1l1-1l-1-3c-3-2-2-5-2-5c0-1-1-2-2-1h-1C428,121,427,126,432,130z"/>
		<ellipse class="st3" cx="434" cy="123" rx="1" ry="1"/>
		<path class="st3" d="M381,149l2,1v-2c3-7,7-13,13-18l-2-2h-1c-5,6-10,12-13,19L381,149z M401,124h1l4-3l-2-2l-4,2l-1,2L401,124z
			 M415,147c-11,1-22,5-31,13v2h2c9-7,19-11,30-12v-3H415z M432,148l-9-1l-2,1l2,2l8,1c1,0,2-1,1-2V148z M366,156l1,3c1,1,2-1,3-2
			l-1-2c-2-5-6-5-9-5l-1,2l2,1C361,153,365,152,366,156z M352,158l-2,1c-1,1,0,2,1,3l2-1c0,0,2-1,3,1l3-1v-1
			C356,157,352,158,352,158z"/>
	</g>
	<g id="Layer_5_1_" class="st2">
		<path class="st3" d="M315.3,290.5l-0.3,0.1h-0.4v-0.5h-0.3l0.1-0.2l0.3-0.3l-0.3-0.3h-0.3l0.2-0.4l-0.3-0.5l-0.3-0.3V287
			c0,0-0.3-0.3-0.4-0.3v-0.3l-0.3-0.2l-0.3-0.4v-9.4l-0.1-0.2h-0.4l-0.3-0.1h-0.3l-0.3,0.3l-0.3-0.1l-0.3-0.3l-0.2-0.3l-0.5,0.1
			v-0.3l-0.3-0.1l-0.5-0.1l-0.5-0.3l-0.5-0.3l-0.3-0.3l-0.3-0.1l-0.4-0.3l-0.3-0.3l-0.3,0.1l-0.3,0.3l-0.3,0.2h-0.7l-0.4-0.3
			l-0.2-0.2l-0.3,0.2h-0.5v0.3l-0.5,0.1l-0.4-0.1l-1.3,0.3v0.3l-0.3,0.1h-0.3l-0.2,0.4l-0.4-0.3l-0.4-0.2l-0.2-0.2l-0.4-0.2
			l-0.3-0.3l-0.2,0.3h-0.4v0.6l-0.3-0.6l-0.5-0.1v-0.5l-0.3-0.1l-0.3,0.5h-0.4v0.7l-0.2,0.2l-0.3-0.3l0.1-0.3l0.2-0.3l-0.3-0.3
			l-0.2,0.3h-0.4l-0.3,0.2l-0.3-0.2V274l-0.3-0.3l-0.3,0.3l-0.3-0.3v-0.2l-0.4-0.3l-0.3,0.3l-0.3,0.3l-0.4,0.3l-0.6-0.2v-0.8
			l-0.3-0.1h-0.3v-0.6l-0.2-0.3l-0.3,0.3l-0.3-0.1l-0.4-0.2l-0.3-0.2l-0.3,0.3l-0.1,0.2l-0.3,0.2h0.3l-0.3-0.2l-0.3,0.2h-0.3
			l-0.4-0.2l-0.2-0.1l-0.3-0.3l-1.3-0.1v-0.3l-0.3-0.4l-0.2-0.3l-0.3-0.1l-0.4-0.2v0.4l-0.2,0.1l-0.3-0.2l-0.3-0.2l-0.3,0.3
			l-0.4-0.1l-0.5-0.4l-0.6-0.5l-0.5-0.2v-12h-15.4l-0.1,27.9h-4.4h-0.3h-13.5v0.7l0.4,0.3l0.6,0.4l0.4,0.3l0.7,1.1l0.6,0.5l0.5,0.4
			l0.9,0.6l0.4,0.7l0.6,0.3l0.4,0.5l0.8,0.8l1.3,0.8l0.8,0.8l0.3,0.5l0.3,1.1l0.8,0.8v1.1l0.3,1l0.4,1l0.9,0.8l0.4,0.3l0.4,0.2
			l0.2,0.3l0.6,0.4l0.8,0.5l0.6,0.1l0.4,0.4l0.7,0.1l0.8,0.8h0.5l0.4,0.3l0.6-0.1l0.2-0.3l0.3-0.4l0.3-0.3h0.2l0.3-0.1l0.1-0.4
			l0.1-0.4l0.2-0.2l0.2-0.8c0-0.1,0.3-0.6,0.3-0.8c0-0.3,0.3-0.5,0.3-0.5l0.6-0.2c0.1-0.2,0.6-0.1,0.6-0.1h0.3l0.1-0.5l0.3-0.2
			l0.9,0.6l0.7-0.1h0.9l0.8,0.2l0.7-0.1l0.5,0.1l0.4,0.5l0.5,0.5l0.4,0.4l0.5,0.2l0.2-0.3l0.3-0.3l0.1,0.3l0.2,0.4l0.1,0.3l-0.4-0.2
			l-0.3,0.1v0.3l0.8,0.6l0.8,0.8l0.3,0.5l0.2,0.5l0.4,0.8l0.7,1.2l0.4,0.8l0.1,0.5l0.2,0.8l0.7,0.5l0.5,0.4l0.3,0.5l0.5,0.8l0.2,0.5
			l0.7,0.7l0.4,0.2l0.4,0.3l0.2,0.5v1.1l0.3,0.3l0.3,1.2l0.3,0.5l0.3,0.4l0.4-0.1l-0.2,0.4l0.3,0.5h0.4l-0.1,0.3l-0.1,0.4l0.2,0.6
			l0.2,0.5l0.3,0.2l0.6,0.2l0.5,0.1l0.3,0.3l0.4,0.4l0.4,0.1l0.7,0.1l0.9,0.6l1,0.3h1l0.7,0.2l0.5,0.3l0.8,0.6l0.3,0.2h0.2l0.2-0.2
			l0.2-0.3l0.4-0.3h0.4l0.2-0.3l-0.3-1.7v1.7l-0.3-0.2l-0.3-0.3l-0.1-0.7l-0.1-0.5H296l-0.3-0.6l-0.1-0.3v-0.4l-0.2-0.8v-0.5
			l-0.4-0.3l0.3-0.3l-0.2-0.4l0.2-0.2h0.3l-0.2-0.3l0.1-0.3l0.1-0.3l0.1-0.4l0.2-0.2l0.2,2.9l0.3,0.8l0.3,0.7l0.3,0.5l0.1-0.3
			c-0.4-1.2-0.7-2.1-0.8-2.9c-0.2-1.3,0-1.9,0-1.9c0.3-1.5,1.7-3.6,1.7-3.6l-0.5,0.2l-0.1,0.4l-0.4,0.6l-0.2,0.4l-0.3,0.7l-0.5,1.2
			h-0.2l-0.3,0.2l-0.2,0.3l-0.5-0.3l-0.6-0.2h0.5l-0.3-0.2l-0.3-0.3l0.3-0.2l0.5,0.4l0.3-0.3v-0.5l0.3,0.2l-0.1,0.3l0.1,0.4l0.2-0.2
			h0.3l0.1-0.5l0.2-0.7l0.2-0.3l0.1-0.3v-0.3h-0.2l-0.3-0.3l-0.4-0.4l-0.3-0.2l0.1-0.2h1.5l0.2-0.3l0.1-0.6l0.1,0.3h0.3v-0.8
			l0.3-0.4l0.3,0.1l0.4,0.1l-0.3,0.3l-0.3,0.3l0.1,0.4l0.3-0.4l0.4-0.4l0.4-0.3l1.6-0.9l0.2-0.5l-0.3,0.2l-0.3,0.4l-0.7,0.4h-1
			c0,0,0.2-0.4,0.1-0.6l-0.3-0.5h0.3l-0.1-0.3l0.3,0.2l0.2,0.4l0.3,0.2l0.8-0.4l0.3-0.3l-0.3-0.1l-0.3-0.1l0.1-0.3l-0.5-0.1l0.1-0.4
			l-0.2-0.4h0.3l0.1,0.3l0.3,0.2h0.2v-0.2l0.3,0.1l-0.1-0.6c-0.1-0.2,0.3,0.2,0.3,0.2l0.3,0.3l0.3-0.3l0.4-0.2l-0.3,0.3v0.3h0.3
			l0.7-0.3l0.3,0.3l-1.6,0.8l-0.3,0.4l0.5-0.3l0.8-0.4l1.9-1.1l-0.9,0.4h-0.3l0.2-0.5h0.4l0.6-0.2h0.5l1.1-0.6l0.6-0.4l0.3-0.3
			l0.4-0.3l0.1-0.3l-0.3-0.2l-0.1-0.3h0.4l0.4-0.3l0.6-0.5h0.3l-0.8,0.8l-0.1,0.3l0.3-0.3l1.1-1l-0.4-0.3h-0.3v-0.3l-0.3-0.3
			l-0.3-0.3l0.3-0.6l-0.3-0.3l-0.3-0.3v-0.1l0.3,0.3l0.5,0.4h0.3l0.3-0.3l0.3-0.2h0.3l0.1,0.6l-0.2,0.5l-0.2,0.3l0.9-0.3l0.3,0.2
			l-0.8,0.3l-0.3,0.3l-0.2,0.3l0.4-0.1l0.8-0.6l2.5-1.1l0.8,0.3h0.3l-0.3-0.7l-0.4-0.3l0.1-0.5l0.3-0.2l0.1-0.4h0.3l0.3-0.3l0.2-0.5
			v0l0.1-0.4l-0.1-0.3l-0.3-0.3l0.1-0.4l0.2-0.3l-0.1-0.2l-0.2-0.3l0.3-0.3l0.3-0.5l0.2-0.4l0.3-0.4v-0.7l-0.2-0.3h0.2V290.5
			L315.3,290.5z"/>
	</g>
	<g id="Layer_7_1_" class="st2">
		<path class="st3" d="M482.2,296.6c2.3,2.3,5.4,3.6,8.7,3.6s6.4-1.3,8.7-3.6c0.9-0.9,0.9-2.3,0-3.1c-0.9-0.9-2.3-0.9-3.1,0
			c-1.5,1.5-3.4,2.3-5.6,2.3s-4.1-0.8-5.6-2.3c-4.8-4.8-12.6-4.8-17.4,0c-1.5,1.5-3.4,2.3-5.6,2.3c-2.1,0-4.1-0.8-5.6-2.3
			c-0.9-0.9-2.3-0.9-3.1,0c-0.9,0.9-0.9,2.3,0,3.1c2.3,2.3,5.4,3.6,8.7,3.6s6.4-1.3,8.7-3.6C474.1,293.5,479.1,293.5,482.2,296.6
			 M505.2,304.8c-3.3,0-6.4,1.3-8.7,3.6c-3.1,3.1-8.1,3.1-11.1,0c-4.8-4.8-12.6-4.8-17.4,0c-0.9,0.9-0.9,2.3,0,3.1
			c0.9,0.9,2.3,0.9,3.1,0c3.1-3.1,8.1-3.1,11.1,0c2.4,2.4,5.6,3.6,8.7,3.6s6.3-1.2,8.7-3.6c1.5-1.5,3.4-2.3,5.6-2.3s4.1,0.8,5.6,2.3
			c0.9,0.9,2.3,0.9,3.1,0c0.9-0.9,0.9-2.3,0-3.1C511.6,306.1,508.5,304.8,505.2,304.8 M471.1,281.6c3.1-3.1,8.1-3.1,11.1,0
			c2.3,2.3,5.4,3.6,8.7,3.6c3.3,0,6.4-1.3,8.7-3.6c1.5-1.5,3.4-2.3,5.6-2.3c2.1,0,4.1,0.8,5.6,2.3c0.9,0.9,2.3,0.9,3.1,0
			c0.9-0.9,0.9-2.3,0-3.1c-2.3-2.3-5.4-3.6-8.7-3.6s-6.4,1.3-8.7,3.6c-1.5,1.5-3.4,2.3-5.6,2.3s-4.1-0.8-5.6-2.3
			c-4.8-4.8-12.6-4.8-17.4,0c-0.9,0.9-0.9,2.3,0,3.1C468.8,282.5,470.2,282.5,471.1,281.6"/>
	</g>
</g>
</svg>
