<?xml version="1.0" encoding="utf-8"?>
<!-- Generator: Adobe Illustrator 19.1.0, SVG Export Plug-In . SVG Version: 6.00 Build 0)  -->
<svg version="1.1" id="Layer_1" xmlns="http://www.w3.org/2000/svg" xmlns:xlink="http://www.w3.org/1999/xlink" x="0px" y="0px"
	 viewBox="-345 283 28 46" style="enable-background:new -345 283 28 46;" xml:space="preserve">
<path d="M-317,288C-317,288-317,288-317,288c0-0.1,0-0.3-0.1-0.4c0,0,0,0,0-0.1c0-0.1-0.1-0.1-0.1-0.2l-1.8-2.4l0,0v-2h-2h-20h-2v2
	l0,0l-1.8,2.4c0,0.1-0.1,0.1-0.1,0.2c0,0,0,0,0,0.1c0,0.1-0.1,0.2-0.1,0.3c0,0,0,0,0,0v36c0,0,0,0,0,0c0,0.1,0,0.2,0.1,0.3
	c0,0,0,0,0,0.1c0,0.1,0.1,0.1,0.1,0.2l3,4c0.2,0.3,0.5,0.4,0.8,0.4h20c0.3,0,0.6-0.1,0.8-0.4l3-4c0-0.1,0.1-0.1,0.1-0.2
	c0,0,0,0,0-0.1c0-0.1,0.1-0.2,0.1-0.3c0,0,0,0,0,0V288z M-343,289h24v34h-24V289z M-321.5,285l1.5,2h-22l1.5-2H-321.5z M-321.5,327
	h-19l-1.5-2h22L-321.5,327z"/>
<rect x="-342.7" y="298.5" transform="matrix(-0.7071 0.7071 -0.7071 -0.7071 -357.542 747.098)" width="18.4" height="2"/>
<rect x="-340.7" y="303.5" transform="matrix(-0.7071 0.7071 -0.7071 -0.7071 -350.5924 754.2194)" width="18.4" height="2"/>
</svg>
